<mxfile host="app.diagrams.net" modified="2024-05-03T11:22:22.882Z" agent="Mozilla/5.0 (Macintosh; Intel Mac OS X 10_15_7) AppleWebKit/537.36 (KHTML, like Gecko) Chrome/124.0.0.0 Safari/537.36" etag="5RErPPjRLPEHrcf94598" version="24.3.1" type="github">
  <diagram name="Page-1" id="obtLO9Ykf1SX7V-qpWQ-">
    <mxGraphModel dx="1224" dy="712" grid="1" gridSize="10" guides="1" tooltips="1" connect="1" arrows="1" fold="1" page="1" pageScale="1" pageWidth="850" pageHeight="1100" math="0" shadow="0">
      <root>
        <mxCell id="0" />
        <mxCell id="1" parent="0" />
        <mxCell id="OWp0184Ef4b5I24yEP23-57" value="" style="rounded=0;whiteSpace=wrap;html=1;fillColor=#f8cecc;strokeColor=#b85450;" vertex="1" parent="1">
          <mxGeometry x="80" y="40" width="680" height="680" as="geometry" />
        </mxCell>
        <mxCell id="OWp0184Ef4b5I24yEP23-30" value="" style="rounded=0;whiteSpace=wrap;html=1;fillColor=#d5e8d4;strokeColor=#82b366;" vertex="1" parent="1">
          <mxGeometry x="500" y="100" width="160" height="120" as="geometry" />
        </mxCell>
        <mxCell id="OWp0184Ef4b5I24yEP23-1" value="myList" style="rounded=0;whiteSpace=wrap;html=1;fontSize=18;fontStyle=1;fillColor=#dae8fc;strokeColor=#6c8ebf;" vertex="1" parent="1">
          <mxGeometry x="120" y="80" width="120" height="40" as="geometry" />
        </mxCell>
        <mxCell id="OWp0184Ef4b5I24yEP23-2" value="CustomLinkedList&lt;div style=&quot;font-size: 18px;&quot;&gt;reference&lt;/div&gt;" style="text;html=1;align=center;verticalAlign=middle;resizable=0;points=[];autosize=1;strokeColor=none;fillColor=none;fontSize=18;fontStyle=1" vertex="1" parent="1">
          <mxGeometry x="95" y="115" width="170" height="60" as="geometry" />
        </mxCell>
        <mxCell id="OWp0184Ef4b5I24yEP23-3" value="" style="rounded=0;whiteSpace=wrap;html=1;fontSize=18;fontStyle=1;fillColor=#d5e8d4;strokeColor=#82b366;" vertex="1" parent="1">
          <mxGeometry x="280" y="80" width="160" height="120" as="geometry" />
        </mxCell>
        <mxCell id="OWp0184Ef4b5I24yEP23-4" value="head" style="rounded=0;whiteSpace=wrap;html=1;fontSize=18;fontStyle=1;fillColor=#dae8fc;strokeColor=#6c8ebf;" vertex="1" parent="1">
          <mxGeometry x="300" y="100" width="120" height="40" as="geometry" />
        </mxCell>
        <mxCell id="OWp0184Ef4b5I24yEP23-5" value="Node reference" style="text;html=1;align=center;verticalAlign=middle;resizable=0;points=[];autosize=1;strokeColor=none;fillColor=none;fontSize=18;fontStyle=1" vertex="1" parent="1">
          <mxGeometry x="285" y="135" width="150" height="40" as="geometry" />
        </mxCell>
        <mxCell id="OWp0184Ef4b5I24yEP23-6" value="CustomLinkedList&lt;div style=&quot;font-size: 18px;&quot;&gt;instance&lt;/div&gt;" style="text;html=1;align=center;verticalAlign=middle;resizable=0;points=[];autosize=1;strokeColor=none;fillColor=none;fontSize=18;fontStyle=1" vertex="1" parent="1">
          <mxGeometry x="275" y="195" width="170" height="60" as="geometry" />
        </mxCell>
        <mxCell id="OWp0184Ef4b5I24yEP23-7" value="" style="endArrow=classic;html=1;rounded=0;entryX=0.013;entryY=0.175;entryDx=0;entryDy=0;entryPerimeter=0;fontSize=18;fontStyle=1;strokeWidth=2;jumpSize=6;endSize=13;" edge="1" parent="1" target="OWp0184Ef4b5I24yEP23-3">
          <mxGeometry width="50" height="50" relative="1" as="geometry">
            <mxPoint x="210" y="100" as="sourcePoint" />
            <mxPoint x="260" y="50" as="targetPoint" />
          </mxGeometry>
        </mxCell>
        <mxCell id="OWp0184Ef4b5I24yEP23-8" value="data = 90" style="rounded=0;whiteSpace=wrap;html=1;fontSize=18;fontStyle=1;fillColor=#dae8fc;strokeColor=#6c8ebf;" vertex="1" parent="1">
          <mxGeometry x="520" y="120" width="120" height="40" as="geometry" />
        </mxCell>
        <mxCell id="OWp0184Ef4b5I24yEP23-10" value="next" style="rounded=0;whiteSpace=wrap;html=1;fontSize=18;fontStyle=1;fillColor=#dae8fc;strokeColor=#6c8ebf;" vertex="1" parent="1">
          <mxGeometry x="520" y="160" width="120" height="40" as="geometry" />
        </mxCell>
        <mxCell id="OWp0184Ef4b5I24yEP23-11" value="Node&amp;nbsp;&lt;div&gt;instance&lt;/div&gt;" style="text;html=1;align=center;verticalAlign=middle;resizable=0;points=[];autosize=1;strokeColor=none;fillColor=none;fontSize=18;fontStyle=1" vertex="1" parent="1">
          <mxGeometry x="660" y="130" width="90" height="60" as="geometry" />
        </mxCell>
        <mxCell id="OWp0184Ef4b5I24yEP23-21" value="" style="endArrow=classic;html=1;rounded=0;fontSize=18;fontStyle=1;strokeWidth=2;jumpSize=6;endSize=13;" edge="1" parent="1">
          <mxGeometry width="50" height="50" relative="1" as="geometry">
            <mxPoint x="620" y="180" as="sourcePoint" />
            <mxPoint x="620" y="255" as="targetPoint" />
          </mxGeometry>
        </mxCell>
        <mxCell id="OWp0184Ef4b5I24yEP23-26" value="" style="endArrow=classic;html=1;rounded=0;fontSize=18;fontStyle=1;strokeWidth=2;jumpSize=6;endSize=13;entryX=0.013;entryY=0.175;entryDx=0;entryDy=0;entryPerimeter=0;" edge="1" parent="1" target="OWp0184Ef4b5I24yEP23-30">
          <mxGeometry width="50" height="50" relative="1" as="geometry">
            <mxPoint x="390" y="120" as="sourcePoint" />
            <mxPoint x="490" y="120" as="targetPoint" />
          </mxGeometry>
        </mxCell>
        <mxCell id="OWp0184Ef4b5I24yEP23-42" value="" style="rounded=0;whiteSpace=wrap;html=1;fillColor=#d5e8d4;strokeColor=#82b366;" vertex="1" parent="1">
          <mxGeometry x="500" y="260" width="160" height="120" as="geometry" />
        </mxCell>
        <mxCell id="OWp0184Ef4b5I24yEP23-43" value="data = 10" style="rounded=0;whiteSpace=wrap;html=1;fontSize=18;fontStyle=1;fillColor=#dae8fc;strokeColor=#6c8ebf;" vertex="1" parent="1">
          <mxGeometry x="520" y="280" width="120" height="40" as="geometry" />
        </mxCell>
        <mxCell id="OWp0184Ef4b5I24yEP23-44" value="next" style="rounded=0;whiteSpace=wrap;html=1;fontSize=18;fontStyle=1;fillColor=#dae8fc;strokeColor=#6c8ebf;" vertex="1" parent="1">
          <mxGeometry x="520" y="320" width="120" height="40" as="geometry" />
        </mxCell>
        <mxCell id="OWp0184Ef4b5I24yEP23-45" value="Node&amp;nbsp;&lt;div&gt;instance&lt;/div&gt;" style="text;html=1;align=center;verticalAlign=middle;resizable=0;points=[];autosize=1;strokeColor=none;fillColor=none;fontSize=18;fontStyle=1" vertex="1" parent="1">
          <mxGeometry x="660" y="290" width="90" height="60" as="geometry" />
        </mxCell>
        <mxCell id="OWp0184Ef4b5I24yEP23-47" value="" style="rounded=0;whiteSpace=wrap;html=1;fillColor=#d5e8d4;strokeColor=#82b366;" vertex="1" parent="1">
          <mxGeometry x="500" y="420" width="160" height="120" as="geometry" />
        </mxCell>
        <mxCell id="OWp0184Ef4b5I24yEP23-48" value="data = 40" style="rounded=0;whiteSpace=wrap;html=1;fontSize=18;fontStyle=1;fillColor=#dae8fc;strokeColor=#6c8ebf;" vertex="1" parent="1">
          <mxGeometry x="520" y="440" width="120" height="40" as="geometry" />
        </mxCell>
        <mxCell id="OWp0184Ef4b5I24yEP23-49" value="next" style="rounded=0;whiteSpace=wrap;html=1;fontSize=18;fontStyle=1;fillColor=#dae8fc;strokeColor=#6c8ebf;" vertex="1" parent="1">
          <mxGeometry x="520" y="480" width="120" height="40" as="geometry" />
        </mxCell>
        <mxCell id="OWp0184Ef4b5I24yEP23-50" value="Node&amp;nbsp;&lt;div&gt;instance&lt;/div&gt;" style="text;html=1;align=center;verticalAlign=middle;resizable=0;points=[];autosize=1;strokeColor=none;fillColor=none;fontSize=18;fontStyle=1" vertex="1" parent="1">
          <mxGeometry x="660" y="450" width="90" height="60" as="geometry" />
        </mxCell>
        <mxCell id="OWp0184Ef4b5I24yEP23-51" value="" style="endArrow=classic;html=1;rounded=0;fontSize=18;fontStyle=1;strokeWidth=2;jumpSize=6;endSize=13;" edge="1" parent="1">
          <mxGeometry width="50" height="50" relative="1" as="geometry">
            <mxPoint x="620" y="500" as="sourcePoint" />
            <mxPoint x="620" y="575" as="targetPoint" />
          </mxGeometry>
        </mxCell>
        <mxCell id="OWp0184Ef4b5I24yEP23-52" value="" style="rounded=0;whiteSpace=wrap;html=1;fillColor=#d5e8d4;strokeColor=#82b366;" vertex="1" parent="1">
          <mxGeometry x="500" y="580" width="160" height="120" as="geometry" />
        </mxCell>
        <mxCell id="OWp0184Ef4b5I24yEP23-53" value="data = 60" style="rounded=0;whiteSpace=wrap;html=1;fontSize=18;fontStyle=1;fillColor=#dae8fc;strokeColor=#6c8ebf;" vertex="1" parent="1">
          <mxGeometry x="520" y="600" width="120" height="40" as="geometry" />
        </mxCell>
        <mxCell id="OWp0184Ef4b5I24yEP23-54" value="next = null" style="rounded=0;whiteSpace=wrap;html=1;fontSize=18;fontStyle=1;fillColor=#dae8fc;strokeColor=#6c8ebf;" vertex="1" parent="1">
          <mxGeometry x="520" y="640" width="120" height="40" as="geometry" />
        </mxCell>
        <mxCell id="OWp0184Ef4b5I24yEP23-55" value="Node&amp;nbsp;&lt;div&gt;instance&lt;/div&gt;" style="text;html=1;align=center;verticalAlign=middle;resizable=0;points=[];autosize=1;strokeColor=none;fillColor=none;fontSize=18;fontStyle=1" vertex="1" parent="1">
          <mxGeometry x="660" y="610" width="90" height="60" as="geometry" />
        </mxCell>
        <mxCell id="OWp0184Ef4b5I24yEP23-58" value="" style="rounded=0;whiteSpace=wrap;html=1;fillColor=#d5e8d4;strokeColor=#82b366;" vertex="1" parent="1">
          <mxGeometry x="285" y="350" width="160" height="120" as="geometry" />
        </mxCell>
        <mxCell id="OWp0184Ef4b5I24yEP23-59" value="data = 30" style="rounded=0;whiteSpace=wrap;html=1;fontSize=18;fontStyle=1;fillColor=#dae8fc;strokeColor=#6c8ebf;" vertex="1" parent="1">
          <mxGeometry x="305" y="370" width="120" height="40" as="geometry" />
        </mxCell>
        <mxCell id="OWp0184Ef4b5I24yEP23-60" value="next" style="rounded=0;whiteSpace=wrap;html=1;fontSize=18;fontStyle=1;fillColor=#dae8fc;strokeColor=#6c8ebf;" vertex="1" parent="1">
          <mxGeometry x="305" y="410" width="120" height="40" as="geometry" />
        </mxCell>
        <mxCell id="OWp0184Ef4b5I24yEP23-62" value="" style="endArrow=classic;html=1;rounded=0;fontSize=18;fontStyle=0;strokeWidth=5;jumpSize=6;endSize=13;entryX=1;entryY=0.25;entryDx=0;entryDy=0;exitX=0.25;exitY=0.563;exitDx=0;exitDy=0;exitPerimeter=0;strokeColor=#FF33FF;" edge="1" parent="1" source="OWp0184Ef4b5I24yEP23-44" target="OWp0184Ef4b5I24yEP23-58">
          <mxGeometry width="50" height="50" relative="1" as="geometry">
            <mxPoint x="610" y="342.5" as="sourcePoint" />
            <mxPoint x="610" y="417.5" as="targetPoint" />
          </mxGeometry>
        </mxCell>
        <mxCell id="OWp0184Ef4b5I24yEP23-63" value="" style="endArrow=classic;html=1;rounded=0;fontSize=18;fontStyle=0;strokeWidth=5;jumpSize=6;endSize=13;entryX=0;entryY=0.083;entryDx=0;entryDy=0;entryPerimeter=0;strokeColor=#FF33FF;" edge="1" parent="1" target="OWp0184Ef4b5I24yEP23-47">
          <mxGeometry width="50" height="50" relative="1" as="geometry">
            <mxPoint x="400" y="430" as="sourcePoint" />
            <mxPoint x="400" y="505" as="targetPoint" />
          </mxGeometry>
        </mxCell>
        <mxCell id="OWp0184Ef4b5I24yEP23-64" value="temp" style="rounded=0;whiteSpace=wrap;html=1;fontSize=18;fontStyle=1;fillColor=#dae8fc;strokeColor=#6c8ebf;" vertex="1" parent="1">
          <mxGeometry x="120" y="350" width="120" height="40" as="geometry" />
        </mxCell>
        <mxCell id="OWp0184Ef4b5I24yEP23-65" value="Node instance" style="text;html=1;align=center;verticalAlign=middle;resizable=0;points=[];autosize=1;strokeColor=none;fillColor=none;fontSize=18;fontStyle=1" vertex="1" parent="1">
          <mxGeometry x="295" y="470" width="140" height="40" as="geometry" />
        </mxCell>
        <mxCell id="OWp0184Ef4b5I24yEP23-66" value="Node reference" style="text;html=1;align=center;verticalAlign=middle;resizable=0;points=[];autosize=1;strokeColor=none;fillColor=none;fontSize=18;fontStyle=1" vertex="1" parent="1">
          <mxGeometry x="105" y="390" width="150" height="40" as="geometry" />
        </mxCell>
        <mxCell id="OWp0184Ef4b5I24yEP23-67" value="" style="endArrow=classic;html=1;rounded=0;entryX=0.013;entryY=0.175;entryDx=0;entryDy=0;entryPerimeter=0;fontSize=18;fontStyle=1;strokeWidth=2;jumpSize=6;endSize=13;" edge="1" parent="1">
          <mxGeometry width="50" height="50" relative="1" as="geometry">
            <mxPoint x="213" y="369.5" as="sourcePoint" />
            <mxPoint x="285" y="370.5" as="targetPoint" />
          </mxGeometry>
        </mxCell>
      </root>
    </mxGraphModel>
  </diagram>
</mxfile>
